<svg width="67" height="67" viewBox="0 0 67 67" fill="none" xmlns="http://www.w3.org/2000/svg">
<g clip-path="url(#clip0_35_67)">
<path d="M67 33.5001C66.999 27.0983 65.1637 20.8308 61.7114 15.4397C58.259 10.0485 53.3343 5.75944 47.5201 3.08022C41.7059 0.401007 35.2458 -0.556162 28.9045 0.322031C22.5632 1.20022 16.6064 3.877 11.7391 8.03548C6.87186 12.1939 3.29806 17.66 1.44079 23.7864C-0.416476 29.9129 -0.47943 36.4432 1.25938 42.6044C2.99819 48.7655 6.46595 54.2994 11.2521 58.5509C16.0383 62.8025 21.9425 65.5936 28.2656 66.5939V43.1857H19.7608V33.5001H28.2656V26.1175C28.2656 17.7216 33.2655 13.086 40.9202 13.086C44.5843 13.086 48.4159 13.7392 48.4159 13.7392V21.9844H44.1949C40.0325 21.9844 38.7344 24.5681 38.7344 27.2188V33.5001H48.0264L46.5399 43.1857H38.7344V66.5939C46.6141 65.3456 53.7899 61.3269 58.9713 55.2605C64.1526 49.1941 66.9995 41.478 67 33.5001Z" fill="#1877F2"/>
<path d="M46.5388 43.1856L48.0296 33.4999H38.7333V27.2187C38.7333 24.568 40.0315 21.9843 44.1938 21.9843H48.4148V13.7391C48.4148 13.7391 44.5833 13.0859 40.9192 13.0859C33.2645 13.0859 28.2646 17.7214 28.2646 26.1174V33.4999H19.7598V43.1856H28.2646V66.5938C31.7329 67.1382 35.265 67.1382 38.7333 66.5938V43.1856H46.5388Z" fill="white"/>
</g>
<defs>
<clipPath id="clip0_35_67">
<rect width="67" height="67" fill="white"/>
</clipPath>
</defs>
</svg>
