<svg width="66" height="66" viewBox="0 0 66 66" fill="none" xmlns="http://www.w3.org/2000/svg">
<g clip-path="url(#clip0_35_63)">
<path d="M33 66C51.2254 66 66 51.2254 66 33C66 14.7746 51.2254 0 33 0C14.7746 0 0 14.7746 0 33C0 51.2254 14.7746 66 33 66Z" fill="#FF492D"/>
<path d="M47.2842 25.278H41.6478C41.7996 24.3936 42.3474 23.8986 43.4562 23.3376L44.4924 22.8096C46.347 21.8592 47.337 20.7834 47.337 19.0278C47.337 17.9256 46.908 17.0544 46.0566 16.4274C45.2052 15.8004 44.202 15.4902 43.0272 15.4902C42.1184 15.4795 41.2261 15.7341 40.4598 16.2228C39.6876 16.698 39.1134 17.3118 38.757 18.0774L40.3872 19.7142C41.0208 18.4338 41.9382 17.8068 43.146 17.8068C44.169 17.8068 44.796 18.3348 44.796 19.0674C44.796 19.6812 44.4924 20.1894 43.3176 20.7834L42.651 21.1068C41.2056 21.8394 40.2024 22.6776 39.6216 23.628C39.0408 24.5784 38.757 25.773 38.757 27.2184V27.6144H47.2842V25.278ZM46.5318 30.3072H37.1994L32.5332 38.3856H41.8656L46.5318 46.4706L51.198 38.3856L46.5318 30.3072Z" fill="#FEFEFE"/>
<path d="M33.3357 43.7779C27.3957 43.7779 22.5579 38.9401 22.5579 33.0001C22.5579 27.0601 27.3957 22.2223 33.3357 22.2223L37.0251 14.5069C35.8102 14.2653 34.5744 14.1437 33.3357 14.1439C22.9209 14.1439 14.4795 22.5853 14.4795 33.0001C14.4795 43.4149 22.9209 51.8563 33.3357 51.8563C37.3269 51.8637 41.2161 50.5966 44.4369 48.2395L40.3581 41.1643C38.4067 42.8499 35.9143 43.7775 33.3357 43.7779Z" fill="#FEFEFE"/>
</g>
<defs>
<clipPath id="clip0_35_63">
<rect width="66" height="66" fill="white"/>
</clipPath>
</defs>
</svg>
