<svg width="66" height="67" viewBox="0 0 66 67" fill="none" xmlns="http://www.w3.org/2000/svg">
<g clip-path="url(#clip0_35_58)">
<path d="M66.0003 34.2693C66.0003 31.9921 65.8147 29.7025 65.4188 27.4622H33.6621V40.3625H51.8477C51.093 44.523 48.6683 48.2035 45.1178 50.5423V58.9127H55.9673C62.3384 53.0781 66.0003 44.4615 66.0003 34.2693Z" fill="#4285F4"/>
<path d="M33.6608 66.9999C42.7412 66.9999 50.399 64.0333 55.9783 58.9126L45.1289 50.5423C42.1103 52.5856 38.2134 53.7427 33.6732 53.7427C24.8897 53.7427 17.4423 47.8465 14.7701 39.9193H3.57422V48.5481C9.28968 59.8605 20.9309 66.9999 33.6608 66.9999Z" fill="#34A853"/>
<path d="M14.7591 39.9194C13.3488 35.7588 13.3488 31.2536 14.7591 27.093V18.4641H3.57558C-1.19967 27.93 -1.19967 39.0823 3.57558 48.5483L14.7591 39.9194Z" fill="#FBBC04"/>
<path d="M33.6608 13.2572C38.4608 13.1834 43.1 14.9805 46.5763 18.2794L56.1887 8.71505C50.1021 3.02811 42.0237 -0.0984759 33.6608 -7.7486e-07C20.9309 -7.7486e-07 9.28968 7.13944 3.57422 18.4641L14.7577 27.093C17.4175 19.1534 24.8773 13.2572 33.6608 13.2572Z" fill="#EA4335"/>
</g>
<defs>
<clipPath id="clip0_35_58">
<rect width="66" height="67" fill="white"/>
</clipPath>
</defs>
</svg>
