<svg width="51" height="67" viewBox="0 0 51 67" fill="none" xmlns="http://www.w3.org/2000/svg">
<path d="M42.8228 19.9916C45.2326 21.9843 51.8431 27.4501 50.7659 31.2871C50.2678 33.0105 48.2886 33.5624 46.8211 34.1008C43.4417 35.326 39.9682 36.2953 36.4408 37.0088C33.5866 37.5878 27.4878 38.8532 28.6186 33.8045C29.0628 31.8523 30.6381 30.1962 31.9038 28.7287C34.5021 25.6727 37.1546 22.4413 40.2914 19.9372C40.5472 19.7352 40.8568 19.6814 41.1261 19.7219C41.6513 19.5069 42.2841 19.5339 42.8228 19.9916Z" fill="#C1272D"/>
<path d="M39.2684 60.2735C37.1547 58.5637 35.6601 55.8845 34.3677 53.542C33.102 51.2802 31.1096 48.2912 30.773 45.6661C30.0865 40.2672 37.9084 43.5121 40.1569 44.2929C43.1457 45.343 51.1564 46.5009 50.2679 51.1724C49.5274 54.9825 44.9363 59.6273 41.0995 60.2198C41.0593 60.2333 41.0052 60.2198 40.9515 60.2198C40.938 60.2333 40.9245 60.2468 40.9112 60.26C40.8034 60.3138 40.6824 60.3813 40.5611 60.4351C40.1032 60.6777 39.659 60.5834 39.2684 60.2735Z" fill="#C1272D"/>
<path d="M21.7791 46.3795C26.0335 44.6159 26.4239 49.3683 26.3969 52.2495C26.3566 55.6827 26.2488 59.1291 25.993 62.5487C25.8987 63.9355 25.9527 65.6051 24.6333 66.4801C23.0042 67.5572 19.8674 66.7089 18.1843 66.184C18.1306 66.157 18.0765 66.1303 18.0228 66.1167C14.4821 65.4975 10.1604 63.8685 9.74299 60.5969C9.70246 60.22 9.85079 59.8834 10.0796 59.6276C10.1874 59.4255 10.2949 59.2372 10.4162 59.0621C10.9414 58.3351 11.5471 57.6889 12.1531 57.0292C13.1762 55.5079 14.2803 54.0404 15.4514 52.6267C17.1478 50.5802 19.2344 47.4296 21.7791 46.3795Z" fill="#C1272D"/>
<path d="M22.3989 31.6238C16.1922 26.5213 10.1472 18.6184 7.0236 11.3079C4.64053 5.74749 10.6991 2.35486 15.3707 0.820094C21.6716 -1.25338 24.1757 0.550739 24.8084 6.85164C25.3336 12.2772 25.5759 17.7433 25.5353 23.1959C25.5218 25.4982 26.1681 29.214 24.8219 31.2874C25.0372 32.1357 23.7583 32.7414 23.0313 32.1625C22.9235 32.0817 22.816 31.9739 22.6946 31.8796C22.5871 31.8123 22.4928 31.7316 22.3989 31.6238Z" fill="#C1272D"/>
<path d="M21.7257 39.5267C22.2238 41.7347 20.6621 42.6232 18.8312 43.458C15.5731 44.9255 12.1534 46.0969 8.72027 47.0662C6.72757 47.6182 3.67156 48.9376 1.74642 47.4701C0.292434 46.3663 0.198145 44.064 0.0636142 42.3944C-0.23247 38.6651 0.332969 29.7659 5.5027 29.389C8.03381 29.2139 11.1976 31.4757 13.2711 32.6606C16.031 34.2494 18.9931 36.0668 21.0527 38.5576C21.362 38.7324 21.6179 39.042 21.7257 39.5267Z" fill="#C1272D"/>
</svg>
